<?xml version="1.0" encoding="UTF-8" standalone="no"?>
<svg width="120px" height="142px" viewBox="0 0 120 142" version="1.1" xmlns="http://www.w3.org/2000/svg" xmlns:xlink="http://www.w3.org/1999/xlink">
    <defs></defs>
    <g id="NOke-app" stroke="none" stroke-width="1" fill="none" fill-rule="evenodd">
        <g id="iPhone-6" transform="translate(-128.000000, -54.000000)">
            <g id="Icon" transform="translate(128.000000, 54.000000)">
                <path d="M21.6002437,21.9571959 C8.40016175,32.9943811 0,49.6094832 0,68.1920904 C0,68.8461925 0.0104079548,69.4978568 0.0310668469,70.1469258 C0.0104801851,70.4194604 0,70.6948184 0,70.9726255 L0,131.196866 C0,137.156452 4.8353247,142 10.8,142 C16.7659868,142 21.6,137.163272 21.6,131.196866 L21.6,114.426781 C32.0052444,123.127169 45.3930629,128.361582 60,128.361582 C74.6069371,128.361582 87.9947556,123.127169 98.4,114.426781 L98.4,122.36976 C98.4,128.332294 103.235325,133.175141 109.2,133.175141 C115.165987,133.175141 120,128.337407 120,122.36976 L120,66.5624434 C120,66.1610117 119.978083,65.7646553 119.935379,65.3745104 C119.444847,54.7029561 116.182243,44.7570426 110.852997,36.2441925 C114.065266,32.4093713 116,27.462338 116,22.0621469 C116,9.87755962 106.150264,0 94,0 C86.2635224,0 79.4597465,4.00465163 75.5375023,10.0596198 C70.758359,8.77827828 65.7441352,8.07384875 60.5735684,8.02529111 C56.5384209,3.12392717 50.4329989,0 43.6,0 C31.4846397,0 21.6566098,9.82089044 21.6002437,21.9571959 Z" id="Oval-1" fill="#F8F6E6"></path>
                <path d="M65.2,61.3841808 C86,61.3841808 86,40.5254237 86,40.5254237 L44.4,40.5254237 C44.4,40.5254237 44.4,61.3841808 65.2,61.3841808 Z" id="Oval-6" fill="#000000"></path>
                <ellipse id="Oval-4" stroke="#6EF0C3" stroke-width="8.4" fill="#000000" cx="43" cy="16.6581921" rx="9" ry="9.02542373"></ellipse>
                <ellipse id="Oval-4-Copy" stroke="#F5F032" stroke-width="8.4" fill="#000000" cx="95" cy="16.6581921" rx="9" ry="9.02542373"></ellipse>
            </g>
        </g>
    </g>
</svg>